<?xml version="1.0" standalone="no"?>
<!DOCTYPE svg PUBLIC "-//W3C//DTD SVG 20010904//EN"
 "http://www.w3.org/TR/2001/REC-SVG-20010904/DTD/svg10.dtd">
<svg version="1.0" xmlns="http://www.w3.org/2000/svg"
 width="1400.000000pt" height="1400.000000pt" viewBox="0 0 1400.000000 1400.000000"
 preserveAspectRatio="xMidYMid meet">
<metadata>
Created by potrace 1.11, written by Peter Selinger 2001-2013
</metadata>
<g transform="translate(0.000000,1400.000000) scale(0.100000,-0.100000)"
fill="#000000" stroke="none">
<path d="M0 7000 l0 -7000 7000 0 7000 0 0 7000 0 7000 -7000 0 -7000 0 0
-7000z m3914 479 c116 -39 194 -117 203 -204 6 -52 -5 -71 -55 -92 -45 -19
-75 -3 -130 70 -57 75 -106 100 -192 101 -36 0 -83 -6 -104 -13 -55 -19 -119
-82 -147 -144 -21 -45 -24 -67 -24 -172 0 -104 3 -127 23 -171 59 -129 180
-183 339 -150 39 8 89 24 112 35 l41 21 0 69 0 68 -99 6 c-54 3 -108 10 -120
17 -30 16 -43 54 -29 84 18 41 53 48 218 44 l152 -3 24 -28 c23 -27 24 -34 24
-171 0 -167 -5 -178 -99 -225 -299 -151 -626 -75 -741 172 -79 167 -58 406 47
544 113 148 354 210 557 142z m2139 0 c182 -61 286 -225 287 -451 1 -266 -142
-446 -378 -480 -211 -29 -409 65 -482 229 -50 113 -66 290 -36 398 48 176 172
296 336 324 76 14 201 4 273 -20z m681 17 c19 -8 37 -25 44 -42 7 -19 12 -134
14 -319 3 -287 3 -291 28 -339 39 -78 64 -91 175 -91 108 0 136 13 170 81 18
36 20 65 25 346 5 290 6 308 26 334 38 51 110 51 148 0 20 -26 21 -43 24 -277
5 -365 -11 -462 -92 -542 -84 -84 -216 -119 -377 -98 -143 18 -228 70 -273
165 -39 83 -47 166 -44 463 3 255 4 272 23 293 18 20 48 38 68 39 4 1 22 -5
41 -13z m-1725 -22 c61 -18 123 -69 154 -128 16 -31 22 -59 22 -116 0 -64 -4
-82 -28 -122 -31 -54 -79 -91 -148 -113 l-47 -16 60 -56 c66 -64 144 -181 169
-257 15 -43 15 -54 4 -77 -17 -33 -64 -53 -103 -44 -40 8 -67 41 -153 183
-119 199 -137 215 -251 227 l-68 7 0 -171 c0 -195 -7 -222 -63 -240 -24 -8
-42 -8 -65 0 -61 21 -62 25 -62 474 l0 407 29 29 29 29 234 0 c183 0 246 -3
287 -16z m3243 -7 c52 -24 105 -73 131 -121 18 -34 22 -57 22 -136 0 -107 -11
-138 -73 -203 -59 -61 -122 -80 -294 -85 l-148 -4 0 -149 c0 -166 -6 -190 -56
-214 -48 -23 -97 -6 -122 42 -18 32 -16 809 1 843 24 48 45 51 282 47 179 -3
227 -7 257 -20z m1096 3 c29 -27 29 -80 1 -106 -19 -17 -41 -19 -255 -22
l-234 -3 0 -110 0 -109 199 0 c217 0 257 -7 272 -48 13 -34 -4 -76 -37 -91
-16 -7 -99 -11 -229 -11 l-205 0 0 -130 0 -130 240 0 241 0 24 -25 c14 -13 25
-36 25 -50 0 -14 -11 -37 -25 -50 l-24 -25 -305 0 -305 0 -28 24 -28 24 -3
404 c-2 432 -1 440 48 465 18 9 103 13 316 13 278 0 291 -1 312 -20z m871 4
c61 -18 123 -69 154 -128 16 -31 22 -59 22 -116 0 -64 -4 -82 -28 -122 -31
-54 -79 -91 -148 -113 l-47 -16 60 -56 c66 -64 144 -181 169 -257 15 -43 15
-54 4 -77 -17 -33 -64 -53 -103 -44 -40 8 -67 41 -153 183 -119 199 -137 215
-251 227 l-68 7 0 -171 c0 -195 -7 -222 -63 -240 -24 -8 -42 -8 -65 0 -61 21
-62 25 -62 474 l0 407 29 29 29 29 234 0 c183 0 246 -3 287 -16z"/>
<path d="M5790 7337 c-19 -6 -55 -32 -80 -57 -61 -60 -85 -132 -84 -255 0
-205 96 -325 260 -325 115 0 206 71 240 187 20 68 20 207 0 276 -34 118 -124
188 -240 186 -34 -1 -77 -6 -96 -12z"/>
<path d="M4620 7220 l0 -133 126 6 c199 10 244 34 244 126 0 97 -43 121 -231
128 l-139 6 0 -133z"/>
<path d="M7890 7210 l0 -142 118 3 c127 4 155 14 189 65 22 35 22 114 -1 149
-26 39 -71 54 -195 61 l-111 7 0 -143z"/>
<path d="M9830 7220 l0 -133 126 6 c199 10 244 34 244 126 0 97 -43 121 -231
128 l-139 6 0 -133z"/>
</g>
</svg>
